<svg xmlns="http://www.w3.org/2000/svg" viewBox="0 0 597.29 283.72"><defs><style>.cls-1{fill:#231f20;}</style></defs><title>Asset 1</title><g id="Layer_2" data-name="Layer 2"><g id="Layer_1-2" data-name="Layer 1"><path class="cls-1" d="M591.82,185.87V168.6h1.68v-3.71h-1.8v-2.7h-1.8V138.37h.79V134h2.25v-3.93h1.46v-2.81h-2.47v-2.81h-2V100.62h1.8V97.14h3.15V94h-6.18L563.58,78.87V73.81a5.08,5.08,0,0,0,1.14-3.39c0-2.28-1.19-4.13-2.65-4.13s-2.66,1.85-2.66,4.13a5.08,5.08,0,0,0,1.14,3.39v5h-.08L556.31,83h-6v-9.1h1.39V71.26h-7.83v2.62h1.39V83H512c-.09-.61-.57-1.24-.64-1.84a4,4,0,0,1,.13-1.62A16.56,16.56,0,0,0,512,75c0-1.12-.05-1.78.9-2.38.55-.34,1.73-.69,2.11-1.21a1.11,1.11,0,0,0-.48-1.49c-.35.24-.42.68-.63,1a2.68,2.68,0,0,1-.83.74c-.37.25-.82.77-1.29.79-.74,0-.84-.91-1-1.5s-.52-3.15-1.81-2.59-.2,2.31-.93,2.91-1.69,0-1.57,1.13a4.63,4.63,0,0,0,.88,2.25,1,1,0,0,0,.8.43c.42,0,.51-.31.79.23.36.7-.11,1.58-.44,2.2-.85,1.62-.52,3.62-.47,5.45h-2.29l-3-1.72V71.94h-4.21v6.9l-11.66-6.68V65.53h-2.36V62.16h-1.68V39.49h2V36.38h1.73V31.66h-3.26c-.94-6.64-4.89-11.84-11.25-13v-5.8h1.25c-.42-3.19-1.8-5.59-3.5-5.88V0h-.67V7c-1.7.29-3.08,2.69-3.5,5.88h1.25v5.76c-6.52,1.05-10.58,6.3-11.53,13h-3.26v4.72h1.73v3.11h2V62.16h-1.68v3.37h-2.36v6.6L440.1,78.84v-6.9h-4.21v9.32l-3,1.72h-2.29c.05-1.83.38-3.83-.47-5.45-.33-.62-.8-1.5-.44-2.2.28-.54.37-.23.79-.23a1,1,0,0,0,.8-.43,4.63,4.63,0,0,0,.88-2.25c.12-1.09-1-.63-1.57-1.13s.22-2.41-.93-2.91S428,70.24,427.84,71s-.23,1.54-1,1.5c-.47,0-.92-.54-1.29-.79a2.8,2.8,0,0,1-.83-.74c-.21-.32-.28-.76-.63-1a1.11,1.11,0,0,0-.48,1.49c.38.52,1.56.87,2.11,1.21.95.6.89,1.26.9,2.38a16.56,16.56,0,0,0,.47,4.5,4,4,0,0,1,.13,1.62c-.07.6-.55,1.23-.64,1.84H393.35v-9.1h1.39V71.26h-7.83v2.62h1.39V83h-6l-4.16-4.16h-.08v-5a5.08,5.08,0,0,0,1.14-3.39c0-2.28-1.19-4.13-2.66-4.13s-2.65,1.85-2.65,4.13a5.08,5.08,0,0,0,1.14,3.39v5.06L350,94h-6.18v3.15h3.15v3.48h1.8v23.82h-2v2.81h-2.47v2.81h1.46V134h2.25v4.38h.79v23.82h-1.8v2.7h-1.8v3.71h1.69v17.27h-3v-26.6h.11v-1.35h-.18c-.27,0-2.81.07-5.93.07-8.37,0-10.95-.45-11.55-.59a48.43,48.43,0,0,1-6.38-2.23c-6-2.38-13.44-5.35-24.83-5.35-11.69,0-18.89,3-24.67,5.42a44.56,44.56,0,0,1-6,2.18c-.57.14-3.07.6-11.14.6-3.31,0-6.11-.08-6.91-.1H246v28h-2.92V128.1l-4.1-2.49V110.68l-4.89-3V86h2.41V80.56h-.81v-3.2H235v3.2h-2.78V78a2.57,2.57,0,0,0-1.7-2.42V58h1.87V57h-1.87V55A4.89,4.89,0,0,0,227,50.3V48.2a2.6,2.6,0,0,0,2.1-2.62c0-1.68-2-4.56-3.08-5.17V35.56h3.71v-.67H226V30.17h-.68v4.72h-3.7v.67h3.7v4.86c-1,.65-3.08,3.5-3.08,5.16a2.6,2.6,0,0,0,2.1,2.62v2.1A4.89,4.89,0,0,0,220.82,55v2H219v1h1.87V75.56a2.57,2.57,0,0,0-1.7,2.42v2.58h-2.28v-3.2h-.67v3.2h-.82V86h2.42v21.36l-5.45,3.31v14.93l-4.1,2.49v57.77h-2.3V95.45h-3.38V89.38h-5V82.64h-5.06V75.9h-5.05V69.16H177.26V75.9h-5v6.74h-5.06v6.74h-5.06v6.07h-3.37v90.42h-2.19v-84.1a21.54,21.54,0,0,1-2.71-1,3.11,3.11,0,1,0-4-3,2.59,2.59,0,0,0,.07.63A22.92,22.92,0,0,1,142,87.89c-2.47-6.68-2.72-11.15-2.64-13.34h-1a4.77,4.77,0,0,0-9.53,0h-1.08c.09,2.19-.17,6.66-2.63,13.34a23.06,23.06,0,0,1-7.88,10.52,3.21,3.21,0,0,0,.06-.63,3.12,3.12,0,1,0-4,3,21.54,21.54,0,0,1-2.71,1v84.1H107v-81l1.77-1.94h-5s-2.61-3-7.33-12.64-3-14.83-3-14.83h1V74.13l2.28-3.29-9.41-4.79h0l-9.41,4.79,2.27,3.29v1.35h1s1.76,5.22-3,14.83c-3.84,7.81-6.28,11.27-7.06,12.3l-2.43-2.36h0l-.73-.7-26.23,27a9.35,9.35,0,0,0-6-2.37,9.36,9.36,0,0,0-6.13,2.47l-3.34-3.23,2.7-2.78L5.6,98l-3.41,3.51,26.7,25.91a22,22,0,0,0-5.46,11.45H25.8c-.07,1-.19,2.3-.37,3.86L22.71,140,0,163.45l2.78,2.7h0l.73.7,21.7-22.37c-.7,5.43-2.05,12.72-4.58,17.82A74,74,0,0,1,15.88,171a3.5,3.5,0,0,0-.64,2v12.88H10.32v13.49h587V185.87Zm-377-13.1v4.84h-3.75v-4.84Zm-3.75-.84v-4.85h3.75v4.85Zm8.34.84v4.84h-3.75v-4.84Zm-3.75-.84v-4.85h3.75v4.85Zm9.48-13.74v-4.85h3.75v4.85Zm3.75.84v4.85h-3.75V159Zm-7-12.51V131.94h7.92v14.58Zm.45-21.49v-9.61c0-1.52,1.49-3.85,3.33-3.85s3.34,2.33,3.34,3.85V125Zm7.43,34h3.75v4.85h-3.75Zm0-.84v-4.85h3.75v4.85Zm-3.8-47.69a4.38,4.38,0,1,1,4.37-4.38A4.38,4.38,0,0,1,225.92,110.5Zm15,21.44v14.58H233V131.94Zm-7-20.37c1.84,0,3.33,2.33,3.33,3.85V125h-6.67v-9.61C230.51,113.9,232,111.57,233.85,111.57ZM230.5,87c.94,0,1.71.81,1.71,2.16V99.75H228.8V89.13C228.8,87.81,229.57,87,230.5,87Zm-4.3-23.46c0-1.32.67-2.16,1.49-2.16s1.48.81,1.48,2.16V74.13h-3ZM225.83,87c.94,0,1.7.81,1.7,2.16V99.75h-3.4V89.13C224.13,87.81,224.89,87,225.83,87Zm-3.68-23.46c0-1.32.67-2.16,1.49-2.16s1.49.81,1.49,2.16V74.13h-3Zm-2.7,25.62c0-1.32.77-2.16,1.71-2.16s1.7.81,1.7,2.16V99.75h-3.41Zm-5.39,26.29c0-1.52,1.5-3.85,3.34-3.85s3.33,2.33,3.33,3.85V125h-6.67Zm-3.34,16.52h7.92v14.58h-7.92Zm-69.9,1.49v8.09h-4.55v-8.09ZM136.27,127v-8.09h4.55V127Zm4.55,15.17v8.09h-4.55v-8.09Zm0,14.5v8.09h-4.55v-8.09Zm0,8.76v8.09h-4.55v-8.09Zm5.39-55.28h4.55v8.09h-4.55Zm0,8.76h4.55V127h-4.55Zm0,14.5h4.55v8.09h-4.55Zm0,8.76h4.55v8.09h-4.55Zm0,14.5h4.55v8.09h-4.55Zm0,8.76h4.55v8.09h-4.55Zm-4.72-55.28h4v8.09h-4Zm0,8.76h4V127h-4Zm0,14.5h4v8.09h-4Zm0,8.76h4v8.09h-4Zm0,14.5h4v8.09h-4Zm0,8.76h4v8.09h-4Zm-.67-55.28v8.09h-4.55v-8.09Zm-7-21.79a3.19,3.19,0,0,1,2.86,3.16v2.73h-2.86Zm0,6.56h2.86v5.31h-2.86Zm-3.53-3.4a3.19,3.19,0,0,1,2.86-3.16v5.89h-2.86Zm0,3.4h2.86v5.31h-2.86Zm-4.09,15.23h4.55v8.09h-4.55Zm0,8.76h4.55V127h-4.55Zm0,14.5h4.55v8.09h-4.55Zm0,8.76h4.55v8.09h-4.55Zm0,14.5h4.55v8.09h-4.55Zm0,8.76h4.55v8.09h-4.55Zm-4.72-55.28h4v8.09h-4Zm0,8.76h4V127h-4Zm0,14.5h4v8.09h-4Zm0,8.76h4v8.09h-4Zm0,14.5h4v8.09h-4Zm0,8.76h4v8.09h-4Zm-5.23-55.28h4.55v8.09h-4.55Zm0,8.76h4.55V127h-4.55Zm0,14.5h4.55v8.09h-4.55Zm0,8.76h4.55v8.09h-4.55Zm0,14.5h4.55v8.09h-4.55Zm0,8.76h4.55v8.09h-4.55Zm379.63,20.34v.08h-3.57v-.08Zm-3.57-.68V180.9h3.57v4.21Zm7.1-5.9a27.78,27.78,0,0,1,.16-3.2H503v4.22h-3.57v-.38h0C499.46,179.64,499.45,179.42,499.45,179.21Zm.24-3.87c.45-3.07,1.55-4.61,3.33-4.78v4.78ZM503,180.9v4.21h-3.57V180.9Zm0,4.89v.08h-3.57v-.08Zm4.25,0v.08H503.7v-.08Zm-3.57-.68V180.9h3.57v4.21Zm16.56-9.69v2.45h-2.62v-2.45Zm-2.62-.59v-2.36h2.62v2.36Zm24.19.59v2.45h-2.61v-2.45Zm-2.61-.59v-2.36h2.61v2.36Zm35.48-56.42v6h-2.57v-6Zm-2.57-.67v-6h2.57v6ZM574.7,138v6.57h-2.57V138Zm0,11.46v6h-2.57v-6Zm0,6.7v6h-2.57v-6Zm0,13.27v2.44h-2.62v-2.44Zm0,3v2.36h-2.62v-2.36Zm0,2.95v2.45h-2.62v-2.45Zm8.21-75.17h2.57v6.58h-2.57Zm0,11.46h2.57v6h-2.57Zm0,6.7h2.57v6h-2.57Zm0,19.6h2.57v6.57h-2.57Zm0,11.46h2.57v6h-2.57Zm0,6.7h2.57v6h-2.57Zm0,13.27h2.61v2.44h-2.61Zm0,3h2.61v2.36h-2.61Zm0,2.95h2.61v2.45h-2.61Zm-3.2-75.17h2.57v6.58h-2.57Zm0,11.46h2.57v6h-2.57Zm0,6.7h2.57v6h-2.57Zm0,19.6h2.57v6.57h-2.57Zm0,11.46h2.57v6h-2.57Zm0,6.7h2.57v6h-2.57Zm0,13.27h2.61v2.44h-2.61Zm0,3h2.61v2.36h-2.61Zm0,2.95h2.61v2.45h-2.61Zm-5-68.59h-2.57v-6.58h2.57Zm-4.85-15.16h0c0-.09,0-.18,0-.27,0-2.53.47-3.7,1.6-3.7s1.6,1.17,1.6,3.7c0,.09,0,.18,0,.27h0V95h-3.2Zm-1,8.58h2.57v6.58h-2.57Zm0,11.46h2.57v6h-2.57Zm0,6.7h2.57v6h-2.57Zm0,19.6h2.57v6.57h-2.57Zm0,11.46h2.57v6h-2.57Zm0,6.7h2.57v6h-2.57Zm0,13.27h2.61v2.44h-2.61Zm0,3h2.61v2.36h-2.61Zm0,2.95h2.61v2.45h-2.61Zm-7.54-75.17h2.57v6.58h-2.57Zm0,11.46h2.57v6h-2.57Zm0,6.7h2.57v6h-2.57Zm0,19.6h2.57v6.57h-2.57Zm0,11.46h2.57v6h-2.57Zm0,6.7h2.57v6h-2.57Zm0,13.27h2.61v2.44H561.3Zm0,3h2.61v2.36H561.3Zm0,2.95h2.61v2.45H561.3Zm-3.21-75.17h2.57v6.58h-2.57Zm0,11.46h2.57v6h-2.57Zm0,6.7h2.57v6h-2.57Zm0,19.6h2.57v6.57h-2.57Zm0,11.46h2.57v6h-2.57Zm0,6.7h2.57v6h-2.57Zm0,13.27h2.62v2.44h-2.62Zm0,3h2.62v2.36h-2.62Zm0,2.95h2.62v2.45h-2.62Zm-15.63-75.17H545v6.58h-2.57Zm0,11.46H545v6h-2.57Zm0,6.7H545v6h-2.57Zm0,19.6H545v6.57h-2.57Zm0,11.46H545v6h-2.57Zm0,6.7H545v6h-2.57Zm0,13.27H545v2.44h-2.61Zm0,3H545v2.36h-2.61Zm0,2.95H545v2.45h-2.61Zm-.59-3.54h-2.61v-2.44h2.61Zm0-53.47v6h-2.57v-6Zm-2.57-.67v-6h2.57v6ZM541.79,138v6.57h-2.57V138Zm0,11.46v6h-2.57v-6Zm0,6.7v6h-2.57v-6Zm0-49.34h-2.57v-6.58h2.57Zm-5.64-15.16h0V91.4c0-2.53.46-3.7,1.59-3.7s1.6,1.17,1.6,3.7a2.44,2.44,0,0,1,0,.27h0V95h-3.19Zm-4.47,8.58h2.57v6.58h-2.57Zm0,11.46h2.57v6h-2.57Zm0,6.7h2.57v6h-2.57Zm0,19.6h2.57v6.57h-2.57Zm0,11.46h2.57v6h-2.57Zm0,6.7h2.57v6h-2.57Zm0,13.27h2.62v2.44h-2.62Zm0,3h2.62v2.36h-2.62Zm0,2.95h2.62v2.45h-2.62Zm-3.2-75.17H531v6.58h-2.57Zm0,11.46H531v6h-2.57Zm0,6.7H531v6h-2.57Zm0,19.6H531v6.57h-2.57Zm0,11.46H531v6h-2.57Zm0,6.7H531v6h-2.57Zm0,13.27H531v2.44h-2.61Zm0,3H531v2.36h-2.61Zm0,2.95H531v2.45h-2.61Zm-7.54-75.17h2.57v6.58h-2.57Zm0,11.46h2.57v6h-2.57Zm0,6.7h2.57v6h-2.57Zm0,19.6h2.57v6.57h-2.57Zm0,11.46h2.57v6h-2.57Zm0,6.7h2.57v6h-2.57Zm0,13.27h2.61v2.44h-2.61Zm0,3h2.61v2.36h-2.61Zm0,2.95h2.61v2.45h-2.61Zm-.59-3.54h-2.62v-2.44h2.62Zm0-53.47v6h-2.57v-6Zm-2.57-.67v-6h2.57v6ZM520.21,138v6.57h-2.57V138Zm0,11.46v6h-2.57v-6Zm0,6.7v6h-2.57v-6Zm0-49.34h-2.57v-6.58h2.57ZM516.6,91.67h0V91.4c0-2.53.46-3.7,1.59-3.7s1.6,1.17,1.6,3.7a2.44,2.44,0,0,1,0,.27h0V95H516.6Zm-9.33,87.54c0,.21,0,.43,0,.64h0v.38H503.7V176h3.42A30.44,30.44,0,0,1,507.27,179.21Zm-.22-3.87H503.7v-4.78C505.56,170.72,506.62,172.26,507.05,175.34Zm-4.36-75.09h2.57v6.58h-2.57Zm0,11.46h2.57v6h-2.57Zm0,6.7h2.57v6h-2.57Zm0,19.6h2.57v6.57h-2.57Zm0,11.46h2.57v6h-2.57Zm0,6.7h2.57v6h-2.57Zm-3.25-55.92H502v6.58h-2.57Zm0,11.46H502v6h-2.57Zm0,6.7H502v6h-2.57Zm0,19.6H502v6.57h-2.57Zm0,11.46H502v6h-2.57Zm0,6.7H502v6h-2.57Zm-3.52,23c0,.21,0,.43,0,.64h0v.38h-3.57V176h3.43C495.87,177,495.92,178,495.92,179.21Zm-3.57-3.87v-4.78c1.86.16,2.92,1.7,3.35,4.78Zm-.56-75.09h2.57v6.58h-2.57Zm0,11.46h2.57v6h-2.57Zm0,6.7h2.57v6h-2.57Zm0,19.6h2.57v6.57h-2.57Zm0,11.46h2.57v6h-2.57Zm0,6.7h2.57v6h-2.57Zm-3.25-55.92h2.57v6.58h-2.57Zm0,11.46h2.57v6h-2.57Zm0,6.7h2.57v6h-2.57Zm0,19.6h2.57v6.57h-2.57Zm0,11.46h2.57v6h-2.57Zm0,6.7h2.57v6h-2.57Zm3.14,14.39v4.78h-3.34C488.79,172.27,489.89,170.73,491.68,170.56Zm-3.58,9.29h0c0-.21,0-.43,0-.64a30.23,30.23,0,0,1,.16-3.2h3.42v4.22H488.1Zm0,1.05h3.58v4.21H488.1Zm3.58,4.89v.08H488.1v-.08Zm-30-74.08v6h-2.57v-6Zm-2.57-4.88v-6.58h2.57v6.58Zm2.57,11.58v6h-2.57v-6Zm0,19.6v6.57h-2.57V138Zm0,11.46v6h-2.57v-6Zm0,6.7v6h-2.57v-6Zm0,19.17H458.3v-4.78C460.16,170.72,461.23,172.26,461.65,175.34Zm.08.67a30.44,30.44,0,0,1,.15,3.2c0,.21,0,.43,0,.64h0v.38H458.3V176Zm.15,4.89v4.21H458.3V180.9Zm0,4.89v.08H458.3v-.08Zm3.52-5.56v-.38h0c0-.21,0-.43,0-.64a30.23,30.23,0,0,1,.16-3.2H469v4.22Zm3.58.67v4.21H465.4V180.9Zm-3.33-5.56c.45-3.07,1.54-4.61,3.33-4.78v4.78Zm1.1-13.15v-6h2.57v6Zm0-6.7v-6h2.57v6Zm0-10.91V138h2.57v6.57Zm0-20.14v-6h2.57v6Zm0-6.7v-6h2.57v6Zm0-10.91v-6.58h2.57v6.58Zm5.81,11.58v6H470v-6Zm-2.57-.67v-6h2.57v6ZM472.56,138v6.57H470V138Zm0,11.46v6H470v-6Zm0,6.7v6H470v-6Zm.44,19.17h-3.35v-4.78C471.51,170.72,472.57,172.26,473,175.34Zm-.44-68.51H470v-6.58h2.57Zm-2.91,74.07h3.58v4.21h-3.58Zm0-.67V176h3.43a30.44,30.44,0,0,1,.15,3.2c0,.21,0,.43,0,.64h0v.38ZM472.23,58h-2c.32-1,1.39-1.63,2-2.46,0,0,0,0,0,0Zm-3.65-1.05L468.4,58h-1.77V52a13.92,13.92,0,0,1,1.49,1.23C468.86,54,468.76,55.94,468.58,56.94Zm.4,128.85v.08H465.4v-.08Zm.67,0h3.58v.08h-3.58Zm7.1-6.58a30.23,30.23,0,0,1,.16-3.2h3.42v4.22h-3.58v-.38h0C476.76,179.64,476.75,179.42,476.75,179.21Zm3.46-67.5v6h-2.57v-6Zm-2.57-4.88v-6.58h2.57v6.58Zm2.57,11.58v6h-2.57v-6Zm0,19.6v6.57h-2.57V138Zm0,11.46v6h-2.57v-6Zm0,6.7v6h-2.57v-6Zm.12,14.39v4.78H477C477.45,172.27,478.54,170.73,480.33,170.56Zm0,10.34v4.21h-3.58V180.9Zm0,4.89v.08h-3.58v-.08Zm4.24,0v.08H481v-.08Zm-3.57-.68V180.9h3.57v4.21Zm3.57-5.9c0,.21,0,.43,0,.64h0v.38H481V176h3.43C484.52,177,484.57,178,484.57,179.21ZM481,175.34v-4.78c1.86.16,2.92,1.7,3.35,4.78Zm-.11-75.09h2.57v6.58h-2.57Zm0,11.46h2.57v6h-2.57Zm0,6.7h2.57v6h-2.57Zm0,19.6h2.57v6.57h-2.57Zm0,11.46h2.57v6h-2.57Zm0,6.7h2.57v6h-2.57Zm-2.82-114c2,0,2.79,2.06,2.79,6.48,0,.16,0,.32,0,.48h0v9H478.3a.93.93,0,0,1-.23,0,1,1,0,0,1-.24,0h-2.56V49.49a9,9,0,0,0,.65-1.18c.11-.25-.21-.58-.43-.33s-.13.21-.21.31C475.34,44.15,476.23,42.19,478.07,42.19Zm-10-24.73h0v-.21c0-2,.55-2.87,1.23-2.87s1.24.91,1.24,2.87v.21h0v1c-.4,0-.81-.05-1.24-.05s-.83,0-1.23.05Zm-1.48,31c0-4.42.9-6.48,2.8-6.48s2.8,2.06,2.8,6.48c0,.16,0,.32,0,.48h0v3.18a2.65,2.65,0,0,1-1-1.85c0-1.08.53-2.39-.84-3-1.62-.66-1.45,1.63-1.36,2.51.05.45.28,1.34-.3,1.42s-1.64-1-1.93-1.4a2.67,2.67,0,0,1-.19-.28V49h0C466.64,48.82,466.63,48.66,466.63,48.5Zm-8.63.56h0v-.47c0-4.42.89-6.48,2.79-6.48s2.8,2.06,2.8,6.48c0,.16,0,.32,0,.47h0v9H461a.59.59,0,0,1-.23,0,.64.64,0,0,1-.23,0H458Zm-2.15,51.19h2.57v6.58h-2.57Zm0,11.46h2.57v6h-2.57Zm0,6.7h2.57v6h-2.57Zm0,19.6h2.57v6.57h-2.57Zm0,11.46h2.57v6h-2.57Zm0,6.7h2.57v6h-2.57Zm1.78,14.39v4.78H454.3C454.75,172.27,455.85,170.73,457.63,170.56Zm-3.57,9.29h0c0-.21,0-.43,0-.64a30.44,30.44,0,0,1,.15-3.2h3.42v4.22h-3.57Zm0,1.05h3.57v4.21h-3.57Zm3.57,4.89v.08h-3.57v-.08ZM450.38,176a30.44,30.44,0,0,1,.15,3.2c0,.21,0,.43,0,.64h0v.38H447V176Zm-3.42-.67v-4.78c1.86.16,2.92,1.7,3.34,4.78Zm3.57,5.56v4.21H447V180.9Zm0,4.89v.08H447v-.08Zm-2.34-85.54h2.57v6.58h-2.57Zm0,11.46h2.57v6h-2.57Zm0,6.7h2.57v6h-2.57Zm0,19.6h2.57v6.57h-2.57Zm0,11.46h2.57v6h-2.57Zm0,6.7h2.57v6h-2.57ZM445,100.25h2.57v6.58H445Zm0,11.46h2.57v6H445Zm0,6.7h2.57v6H445Zm0,19.6h2.57v6.57H445Zm0,11.46h2.57v6H445Zm0,6.7h2.57v6H445Zm1.33,14.39v4.78H443C443.4,172.27,444.5,170.73,446.28,170.56Zm-3.57,9.29h0c0-.21,0-.43,0-.64a27.78,27.78,0,0,1,.16-3.2h3.41v4.22h-3.57Zm0,1.05h3.57v4.21h-3.57Zm3.57,4.89v.08h-3.57v-.08ZM439,176a30.44,30.44,0,0,1,.15,3.2c0,.21,0,.43,0,.64h0v.38h-3.57V176Zm-3.42-.67v-4.78c1.86.16,2.92,1.7,3.35,4.78Zm3.57,5.56v4.21h-3.57V180.9Zm0,4.89v.08h-3.57v-.08Zm-1.89-85.54h2.57v6.58h-2.57Zm0,11.46h2.57v6h-2.57Zm0,6.7h2.57v6h-2.57Zm0,19.6h2.57v6.57h-2.57Zm0,11.46h2.57v6h-2.57Zm0,6.7h2.57v6h-2.57Zm-3.24-55.92h2.57v6.58h-2.57Zm0,11.46h2.57v6h-2.57Zm0,6.7h2.57v6h-2.57Zm0,19.6h2.57v6.57h-2.57Zm0,11.46h2.57v6h-2.57Zm0,6.7h2.57v6h-2.57Zm.88,14.39v4.78H431.6C432.05,172.27,433.15,170.73,434.93,170.56Zm-3.57,9.29h0c0-.21,0-.43,0-.64a27.78,27.78,0,0,1,.16-3.2h3.41v4.22h-3.57Zm0,1.05h3.57v4.21h-3.57ZM418.84,91.67h0a2.44,2.44,0,0,1,0-.27c0-2.53.52-3.7,1.6-3.7S422,88.87,422,91.4v.27h0V95h-3.2Zm-.42,8.58H421v6.58h-2.57Zm0,11.46H421v6h-2.57Zm0,6.7H421v6h-2.57Zm0,19.6H421v6.57h-2.57Zm0,11.46H421v6h-2.57Zm0,6.7H421v6h-2.57Zm-.05,13.27H421v2.44h-2.62Zm0,3H421v2.36h-2.62Zm0,2.95H421v2.45h-2.62Zm-3.2-75.17h2.57v6.58h-2.57Zm0,11.46h2.57v6h-2.57Zm0,6.7h2.57v6h-2.57Zm0,19.6h2.57v6.57h-2.57Zm0,11.46h2.57v6h-2.57Zm0,6.7h2.57v6h-2.57Zm0,13.27h2.61v2.44h-2.61Zm0,3h2.61v2.36h-2.61Zm0,2.95h2.61v2.45h-2.61Zm-7.54-75.17h2.57v6.58h-2.57Zm0,11.46h2.57v6h-2.57Zm0,6.7h2.57v6h-2.57Zm0,19.6h2.57v6.57h-2.57Zm0,11.46h2.57v6h-2.57Zm0,6.7h2.57v6h-2.57Zm0,13.27h2.61v2.44h-2.61Zm0,3h2.61v2.36h-2.61Zm0,2.95h2.61v2.45h-2.61Zm-3.2-75.17H407v6.58h-2.57Zm0,11.46H407v6h-2.57Zm0,6.7H407v6h-2.57Zm0,19.6H407v6.57h-2.57Zm0,11.46H407v6h-2.57Zm0,6.7H407v6h-2.57Zm0,13.27H407v2.44h-2.61Zm0,3H407v2.36h-2.61Zm0,2.95H407v2.45h-2.61Zm-5.1-83.75h0a2.44,2.44,0,0,1,0-.27c0-2.53.51-3.7,1.6-3.7s1.59,1.17,1.59,3.7v.27h0V95h-3.19Zm-2.45,8.58h2.57v6.58h-2.57Zm0,11.46h2.57v6h-2.57Zm0,6.7h2.57v6h-2.57Zm0,19.6h2.57v6.57h-2.57Zm0,11.46h2.57v6h-2.57Zm0,6.7h2.57v6h-2.57Zm0,13.27h2.61v2.44H396.8Zm0,3h2.61v2.36H396.8Zm0,2.95h2.61v2.45H396.8Zm-3.2-75.17h2.57v6.58H393.6Zm0,11.46h2.57v6H393.6Zm0,6.7h2.57v6H393.6Zm0,19.6h2.57v6.57H393.6Zm0,11.46h2.57v6H393.6Zm0,6.7h2.57v6H393.6Zm0,13.27h2.61v2.44H393.6Zm0,3h2.61v2.36H393.6Zm0,2.95h2.61v2.45H393.6ZM378,100.25h2.57v6.58H378Zm0,11.46h2.57v6H378Zm0,6.7h2.57v6H378Zm0,19.6h2.57v6.57H378Zm0,11.46h2.57v6H378Zm0,6.7h2.57v6H378Zm-.05,13.27h2.62v2.44h-2.62Zm0,3h2.62v2.36h-2.62Zm0,2.95h2.62v2.45h-2.62Zm-3.2-75.17h2.57v6.58h-2.57Zm0,11.46h2.57v6h-2.57Zm0,6.7h2.57v6h-2.57Zm0,19.6h2.57v6.57h-2.57Zm0,11.46h2.57v6h-2.57Zm0,6.7h2.57v6h-2.57Zm0,13.27h2.61v2.44h-2.61Zm0,3h2.61v2.36h-2.61Zm0,2.95h2.61v2.45h-2.61Zm-7.58-.59v-2.36h2.61v2.36Zm2.61.59v2.45h-2.61v-2.45Zm-2.61-3.54v-2.44h2.61v2.44Zm0-9.69v-6h2.57v6Zm0-6.7v-6h2.57v6Zm0-10.91V138h2.57v6.57Zm0-20.14v-6h2.57v6Zm0-6.7v-6h2.57v6Zm0-10.91v-6.58h2.57v6.58Zm-1.6-15.16h0c0-.09,0-.18,0-.27,0-2.53.52-3.7,1.6-3.7s1.6,1.17,1.6,3.7c0,.09,0,.18,0,.27h0V95h-3.2Zm-1.64,8.58h2.57v6.58h-2.57Zm0,11.46h2.57v6h-2.57Zm0,6.7h2.57v6h-2.57Zm0,19.6h2.57v6.57h-2.57Zm0,11.46h2.57v6h-2.57Zm0,6.7h2.57v6h-2.57Zm0,13.27h2.61v2.44h-2.61Zm0,3h2.61v2.36h-2.61Zm0,2.95h2.61v2.45h-2.61Zm-7.55-75.17H359v6.58h-2.57Zm0,11.46H359v6h-2.57Zm0,6.7H359v6h-2.57Zm0,19.6H359v6.57h-2.57Zm0,11.46H359v6h-2.57Zm0,6.7H359v6h-2.57Zm0,13.27H359v2.44h-2.61Zm0,3H359v2.36h-2.61Zm0,2.95H359v2.45h-2.61Zm-3.2-75.17h2.57v6.58h-2.57Zm0,11.46h2.57v6h-2.57Zm0,6.7h2.57v6h-2.57Zm0,19.6h2.57v6.57h-2.57Zm0,11.46h2.57v6h-2.57Zm0,6.7h2.57v6h-2.57Zm0,13.27h2.61v2.44h-2.61Zm0,3h2.61v2.36h-2.61Zm0,2.95h2.61v2.45h-2.61Zm78.21,10.37h3.57v.08h-3.57Zm-102.92.08H308.56v-4.46h0c.2-7.06,4.56-11.46,9.92-11.46s9.72,4.4,9.93,11.46h0Zm8.88-26.52h.46c2.25,0,4.2,0,5.23-.06V164c-1.09,0-3.22.06-5.69.06Zm-6.47-.14c1.47.07,3.33.12,5.69.13v4.72c-1.84,0-3.83,0-5.69-.12Zm-6.46-.91c.52.16,1,.3,1.54.42a27.51,27.51,0,0,0,4.15.45v4.73a33.79,33.79,0,0,1-5.34-.58l-.35-.09Zm-6.47-2.44,1.44.57c1.53.61,2.93,1.16,4.25,1.61v5a59.65,59.65,0,0,1-5.69-2Zm-6.46-2.28c2.06.62,3.94,1.31,5.69,2v5.12c-1.77-.7-3.64-1.44-5.69-2.12ZM305,152a53.15,53.15,0,0,1,5.69,1.32v5a54.07,54.07,0,0,0-5.69-1.46Zm-6.46-.74a53.36,53.36,0,0,1,5.69.61v4.81a49.79,49.79,0,0,0-5.69-.69Zm-6.47,0c1,0,1.93-.08,3-.08s1.84,0,2.73.07V156c-.92,0-1.86-.07-2.85-.07s-1.92,0-2.84.07Zm-6.47.66a54.76,54.76,0,0,1,5.69-.62V156a48.79,48.79,0,0,0-5.69.68ZM285,176.69c.2-7.06,4.56-11.46,9.92-11.46s9.73,4.4,9.93,11.46h0v9.18H285v-9.18Zm-5.85-23.27a51.22,51.22,0,0,1,5.69-1.36v4.78a49.3,49.3,0,0,0-5.69,1.49Zm-6.47,2.33c1.74-.71,3.61-1.43,5.69-2.09v4.93c-2.07.71-3.93,1.49-5.69,2.22Zm-6.46,2.56c1.45-.47,3-1.11,4.67-1.82l1-.42v5.06a47.54,47.54,0,0,1-5.69,2.07Zm-6.47.94a29.58,29.58,0,0,0,5-.51c.24-.06.47-.14.7-.21v4.86a39.85,39.85,0,0,1-5.69.58Zm-6.46.13c2.32,0,4.18,0,5.69-.1V164c-1.88.07-3.86.1-5.69.1Zm-6.47-.09c1,0,3.18.08,5.69.09v4.72c-2.48,0-4.6-.06-5.69-.09Zm14.57,22.12h0c.21-7.06,4.57-11.46,9.93-11.46s9.72,4.4,9.92,11.46h0v4.46H261.37Zm-74.22-59.94v6h-4.43v-6Zm-4.43-.81v-6.6h4.43v6.6Zm4.43,14.23v6h-4.43v-6Zm0,6.81v6.6h-4.43v-6.6Zm0,7.41v6h-4.43v-6Zm0,13.42v6h-4.43v-6Zm0,6.81V176h-4.43v-6.61Zm0,7.41v6h-4.43v-6Zm8.72-69.5h4.43v6h-4.43Zm0,6.81h4.43v6.6h-4.43Zm0,7.41h4.43v6h-4.43Zm0,13.42h4.43v6h-4.43Zm0,6.81h4.43v6.6h-4.43Zm0,7.41h4.43v6h-4.43Zm0,13.42h4.43v6h-4.43Zm0,6.81h4.43V176h-4.43Zm0,7.41h4.43v6h-4.43Zm-5.24-69.5h4.43v6h-4.43Zm0,6.81h4.43v6.6h-4.43Zm0,7.41h4.43v6h-4.43Zm0,13.42h4.43v6h-4.43Zm0,6.81h4.43v6.6h-4.43Zm0,7.41h4.43v6h-4.43Zm0,13.42h4.43v6h-4.43Zm0,6.81h4.43V176h-4.43Zm0,7.41h4.43v6h-4.43Zm-3.48-63.5h-4.43v-6h4.43Zm-8.59-30.16h7.52v13.6h-7.52Zm-1.07,24.16h4.43v6h-4.43Zm0,6.81h4.43v6.6h-4.43Zm0,7.41h4.43v6h-4.43Zm0,13.42h4.43v6h-4.43Zm0,6.81h4.43v6.6h-4.43Zm0,7.41h4.43v6h-4.43Zm0,13.42h4.43v6h-4.43Zm0,6.81h4.43V176h-4.43Zm0,7.41h4.43v6h-4.43Zm-7.91-69.5H174v6h-4.43Zm0,6.81H174v6.6h-4.43Zm0,7.41H174v6h-4.43Zm0,13.42H174v6h-4.43Zm0,6.81H174v6.6h-4.43Zm0,7.41H174v6h-4.43Zm-5.24-41.86h4.43v6h-4.43Zm0,6.81h4.43v6.6h-4.43Zm0,7.41h4.43v6h-4.43Zm0,13.42h4.43v6h-4.43Zm0,6.81h4.43v6.6h-4.43Zm0,7.41h4.43v6h-4.43ZM164.12,162h10.41v23.9h-.84V162.81H165v23.06h-.84ZM71.2,175.51V171H75v4.47Zm3.82.76v5.64H71.2v-5.64ZM39.11,153.82v6H32.72v-6a3.2,3.2,0,1,1,6.39,0ZM56,171a74,74,0,0,1-4.75-8.69,48.1,48.1,0,0,1-3.59-11.65l18.33,17.79,1.77-1.82v19.25H56.59V173A3.5,3.5,0,0,0,56,171Zm23.64,5.28v5.64H75.77v-5.64Zm-3.82-.76V171h3.82v4.47ZM86.9,171v4.47H83.08V171Zm-3.82-.76v-5.64H86.9v5.64Zm3.82,6v5.64H83.08v-5.64Zm4.58-11.63v5.64H87.66v-5.64ZM87.76,98.91V94.06h2.65v4.85ZM91.48,171v4.47H87.66V171Zm0,5.23v5.64H87.66v-5.64Zm4.15,9.6h-1v-16h1Zm1.68-8.28V170.9h5.25v6.69Zm7.93,8.28h-1v-16h1Zm-5-21.23h5v4.57h-5Zm-.68,4.57h-5v-4.57h5ZM95.38,113H99.2v5.64H95.38Zm0,6.4H99.2v4.47H95.38Zm0,5.23H99.2v5.64H95.38Zm0,14.2H99.2v5.64H95.38Zm0,6.4H99.2v4.47H95.38Zm0,5.23H99.2v5.64H95.38ZM90.8,113h3.82v5.64H90.8Zm0,6.4h3.82v4.47H90.8Zm0,5.23h3.82v5.64H90.8Zm0,14.2h3.82v5.64H90.8Zm0,6.4h3.82v4.47H90.8Zm0,5.23h3.82v5.64H90.8ZM90.41,93.3H87.76V88.71h2.65ZM85.68,78.59a1.57,1.57,0,0,1,1.52-1.68h.27A1.5,1.5,0,0,1,89,78.55v3.54H85.68ZM84.26,88.71H87V93.3H84.26Zm0,5.35H87v4.85H84.26ZM80,113h3.82v5.64H80Zm0,6.4h3.82v4.47H80Zm0,5.23h3.82v5.64H80Zm0,14.2h3.82v5.64H80Zm0,6.4h3.82v4.47H80Zm0,5.23h3.82v5.64H80Zm-.45,19.84H75.77v-5.64h3.82ZM75.47,113h3.82v5.64H75.47Zm0,6.4h3.82v4.47H75.47Zm0,5.23h3.82v5.64H75.47Zm0,14.2h3.82v5.64H75.47Zm0,6.4h3.82v4.47H75.47Zm0,5.23h3.82v5.64H75.47ZM75,170.28H71.2v-5.64H75Zm-29-46.62,2.78,2.7L67.71,106.9v56.45L46.4,142.67c-.18-1.56-.3-2.89-.37-3.85h2.09a21.8,21.8,0,0,0-5.58-11.55ZM31,174.38h9.1v11.49h-1V175.39H32v10.48H31Z"/><path class="cls-1" d="M225.92,102.52a3.61,3.61,0,1,0,3.6,3.6A3.61,3.61,0,0,0,225.92,102.52Zm2.31,2.13-2.13,2a.35.35,0,0,1-.23.09.41.41,0,0,1-.18,0,.35.35,0,0,1-.16-.08l-1.77-1.69a.32.32,0,0,1,0-.47.33.33,0,0,1,.47,0l1.62,1.54,1.92-1.81a.34.34,0,0,1,.47.49Z"/><path class="cls-1" d="M217.4,112.25c-1.42,0-2.66,2-2.66,3.17v8.93h5.32v-8.93C220.06,114.23,218.81,112.25,217.4,112.25Z"/><path class="cls-1" d="M225.62,112.25c-1.42,0-2.66,2-2.66,3.17v8.93h5.32v-8.93C228.28,114.23,227,112.25,225.62,112.25Z"/><rect class="cls-1" x="222.52" y="132.61" width="6.57" height="13.23"/><path class="cls-1" d="M231.18,124.35h5.33v-8.93c0-1.19-1.25-3.17-2.66-3.17s-2.67,2-2.67,3.17Z"/><rect class="cls-1" x="233.64" y="132.61" width="6.57" height="13.23"/><rect class="cls-1" x="211.39" y="132.61" width="6.57" height="13.23"/><path class="cls-1" d="M112.51,277.47a3.63,3.63,0,0,1-.62-1.1L96.26,233.71H88.8l-3.85,8-13,34.5a3.21,3.21,0,0,1-1.66,1.85L67,279.69v2.89H83v-2.89l-5.42-2.22,3.8-10.26h16l4,10.47-5.36,2v2.89h20.73v-2.89l-3.41-1.51A2.12,2.12,0,0,1,112.51,277.47Zm-29.06-15.7,5.83-16.28h.54L91.1,250l4.33,11.75Z"/><path class="cls-1" d="M150.65,267.71h-.51l-1.56-5.84-9.06-27.42H119.18v2.89l4.91,2a2,2,0,0,1,.83.54,1.41,1.41,0,0,1,.35,1v34.93a1.43,1.43,0,0,1-.35,1.06,2.94,2.94,0,0,1-.83.58l-4.91,2.22v2.89h18v-2.89l-4.85-2.22a3.11,3.11,0,0,1-.84-.57,1.36,1.36,0,0,1-.37-1.07V242.51h.58l1.53,5.23,11.47,34.84h5.81l3-7.45,9.09-27.39,1.59-5.2h.58V276a1.42,1.42,0,0,1-.37,1.09,3,3,0,0,1-.91.59l-4.81,2v2.89h22.67v-2.89l-4.85-2a2.59,2.59,0,0,1-.93-.57,1.51,1.51,0,0,1-.38-1.11V240.9a1.33,1.33,0,0,1,.4-1,3.12,3.12,0,0,1,.91-.55l4.85-2v-2.89H161.36Z"/><path class="cls-1" d="M222,259.82a12.73,12.73,0,0,0-2.87-2.51,23.69,23.69,0,0,0-3.41-1.82c-1-.4-1.9-.76-2.78-1.07s-1.73-.6-2.58-.87l-2.5-.81c-.82-.27-1.65-.54-2.5-.84a18.25,18.25,0,0,1-3.09-1.39,8.34,8.34,0,0,1-2-1.56,4.7,4.7,0,0,1-1.07-1.85,7.56,7.56,0,0,1-.3-2.18,5.05,5.05,0,0,1,.49-2.14,5.31,5.31,0,0,1,1.5-1.9,8.18,8.18,0,0,1,2.47-1.34,10.1,10.1,0,0,1,3.41-.52,10.51,10.51,0,0,1,2.23.25,21.59,21.59,0,0,1,2.3.62,19.63,19.63,0,0,1,2,.79,14.32,14.32,0,0,1,1.37.72,6.92,6.92,0,0,1,.83.72,2.49,2.49,0,0,1,.6,1l1.82,6h4.21V235.49c-1-.24-2.08-.49-3.29-.75s-2.49-.49-3.84-.71-2.73-.38-4.14-.5-2.79-.18-4.13-.18a21.8,21.8,0,0,0-4.59.47,19.94,19.94,0,0,0-4.21,1.36,17.34,17.34,0,0,0-3.64,2.19,15.52,15.52,0,0,0-2.85,2.94,13,13,0,0,0-2.53,7.77,14.42,14.42,0,0,0,.62,4.39A12,12,0,0,0,191.3,256a12.5,12.5,0,0,0,2.76,2.77,16.54,16.54,0,0,0,3.58,2c.83.33,1.68.64,2.55.92l2.62.84,2.66.85c.9.29,1.8.63,2.69,1s1.82.8,2.57,1.19a8.55,8.55,0,0,1,1.93,1.34,5.13,5.13,0,0,1,1.21,1.77,6.23,6.23,0,0,1,.41,2.41,5.92,5.92,0,0,1-.67,2.84,6.51,6.51,0,0,1-1.89,2.18,8.72,8.72,0,0,1-2.92,1.41,13.64,13.64,0,0,1-3.73.48,10.73,10.73,0,0,1-2.45-.31,22.19,22.19,0,0,1-2.67-.83,27.56,27.56,0,0,1-2.53-1.1q-1.21-.62-2-1.14l-.37-.32a5.48,5.48,0,0,1-.41-.42c-.14-.16-.27-.32-.38-.47a2.12,2.12,0,0,1-.28-.51l-1.88-6.4h-4.24l.19,14.12c1.26.38,2.6.75,4,1.11s2.87.68,4.32,1,2.87.53,4.27.71a30.69,30.69,0,0,0,3.89.27,27.63,27.63,0,0,0,9-1.3,18.29,18.29,0,0,0,6.28-3.48,14.17,14.17,0,0,0,3.71-5.06,14.91,14.91,0,0,0,1.23-6,13.56,13.56,0,0,0-.73-4.61A11.61,11.61,0,0,0,222,259.82Z"/><path class="cls-1" d="M229,248.55h4.18l1.85-7.29a2.07,2.07,0,0,1,.48-.95,1.21,1.21,0,0,1,.89-.32h9.31v36a1.69,1.69,0,0,1-.32,1.11,2,2,0,0,1-.92.57l-5.23,2v2.86h23.53v-2.86l-5.26-2a2.38,2.38,0,0,1-.87-.55,1.57,1.57,0,0,1-.38-1.13V240h9.37a1.13,1.13,0,0,1,.83.34,1.82,1.82,0,0,1,.51.93l1.82,7.29H273v-14.1H229Z"/><path class="cls-1" d="M313.72,275.63a1.76,1.76,0,0,1-.5.92,1.14,1.14,0,0,1-.84.35H294.3V260.26h8.61a1.12,1.12,0,0,1,.94.35,2.62,2.62,0,0,1,.43.92l1.72,5.24h3.54V248.35H306l-1.72,5.26a2.54,2.54,0,0,1-.44,1,1.23,1.23,0,0,1-.93.29H294.3V240.09h15.62a1.13,1.13,0,0,1,.87.34,2,2,0,0,1,.47.94l1.85,6.57h4.24V234.45H277.66v2.89l4.91,2a2,2,0,0,1,.83.54,1.45,1.45,0,0,1,.35,1V276a1.64,1.64,0,0,1-.33,1.11,2.2,2.2,0,0,1-.85.57l-4.91,2v2.89h42.12V268.25h-4.24Z"/><path class="cls-1" d="M369.43,277.73a6.36,6.36,0,0,1-.7-.56,4.66,4.66,0,0,1-.61-.65l-.49-.66-10.71-16.51a18.37,18.37,0,0,0,3.18-1.62,13.17,13.17,0,0,0,2.94-2.56,12.47,12.47,0,0,0,2.13-3.64,13.38,13.38,0,0,0,.83-4.9,15.24,15.24,0,0,0-.29-2.93,10.23,10.23,0,0,0-1-2.82,9.44,9.44,0,0,0-2-2.52,11.9,11.9,0,0,0-3.14-2,19.67,19.67,0,0,0-4.54-1.37,32.94,32.94,0,0,0-6.16-.51H326v2.89l4.91,2a2.06,2.06,0,0,1,.83.54,1.45,1.45,0,0,1,.35,1V276a1.59,1.59,0,0,1-.35,1.11,2.37,2.37,0,0,1-.83.57l-4.91,2v2.89h22.89v-2.89l-5-2a2.21,2.21,0,0,1-.89-.57,1.59,1.59,0,0,1-.35-1.11v-14.8l4.34,1.18L356.63,278c.51.8.94,1.5,1.29,2.08a5.7,5.7,0,0,0,1.19,1.43,4.55,4.55,0,0,0,1.63.82,9.87,9.87,0,0,0,2.58.27H375v-2.89l-4.87-1.61A2.65,2.65,0,0,1,369.43,277.73Zm-15.1-26.06a8.13,8.13,0,0,1-1.37,2.78,7,7,0,0,1-2.36,2,7.24,7.24,0,0,1-3.41.75l-1.05,0c-.45,0-.9-.06-1.37-.1l-1.31-.14a7.06,7.06,0,0,1-.86-.13V240h3.95a8.52,8.52,0,0,1,6.13,2q2.1,2,2.1,6.41A11.7,11.7,0,0,1,354.33,251.67Z"/><path class="cls-1" d="M419.69,243.75a19,19,0,0,0-4.36-4.48,22.5,22.5,0,0,0-5.18-2.85,26.61,26.61,0,0,0-5.46-1.51,31.61,31.61,0,0,0-5.25-.46H376.62v2.89l4.91,2a2.46,2.46,0,0,1,.82.55,1.38,1.38,0,0,1,.35,1V276a1.54,1.54,0,0,1-.35,1.11,2.25,2.25,0,0,1-.82.57l-4.91,2v2.89h22.44a31.5,31.5,0,0,0,9.71-1.45,21.8,21.8,0,0,0,7.86-4.39,20.47,20.47,0,0,0,5.26-7.47,27.37,27.37,0,0,0,1.91-10.69,29,29,0,0,0-1.12-8.49A22.28,22.28,0,0,0,419.69,243.75Zm-8,23.17a15.64,15.64,0,0,1-2.35,5.49,10.13,10.13,0,0,1-4,3.4,13.29,13.29,0,0,1-5.79,1.16h-6.31V240h4.65a13.36,13.36,0,0,1,6,1.36,13.06,13.06,0,0,1,4.6,3.88,18.32,18.32,0,0,1,2.92,6.12,30.09,30.09,0,0,1,1,8.17A32.18,32.18,0,0,1,411.72,266.92Z"/><path class="cls-1" d="M471,277.47a3.85,3.85,0,0,1-.62-1.1l-15.62-42.66h-7.46l-3.86,8-13,34.5a3.23,3.23,0,0,1-1.65,1.85l-3.29,1.61v2.89h16v-2.89l-5.42-2.22,3.79-10.26h16l4,10.47-5.35,2v2.89h20.72v-2.89l-3.41-1.51A2.25,2.25,0,0,1,471,277.47ZM442,261.77l5.84-16.28h.54l1.27,4.53L454,261.77Z"/><path class="cls-1" d="M509.17,267.71h-.51l-1.56-5.84-9.05-27.42H477.71v2.89l4.91,2a2.06,2.06,0,0,1,.83.54,1.45,1.45,0,0,1,.35,1v34.93a1.47,1.47,0,0,1-.35,1.06,3.09,3.09,0,0,1-.83.58l-4.91,2.22v2.89h18v-2.89l-4.84-2.22a3.33,3.33,0,0,1-.85-.57,1.4,1.4,0,0,1-.36-1.07V242.51h.57l1.53,5.23,11.48,34.84h5.8l3-7.45,9.08-27.39,1.6-5.2h.57V276a1.42,1.42,0,0,1-.37,1.09,2.93,2.93,0,0,1-.9.59l-4.82,2v2.89h22.67v-2.89l-4.85-2a2.47,2.47,0,0,1-.92-.57,1.47,1.47,0,0,1-.38-1.11V240.9a1.33,1.33,0,0,1,.39-1,3.12,3.12,0,0,1,.91-.55l4.85-2v-2.89H519.89Z"/></g></g></svg>